<?xml version="1.0" encoding="utf-8"?>
<!-- Generator: Adobe Illustrator 18.0.0, SVG Export Plug-In . SVG Version: 6.00 Build 0)  -->
<!DOCTYPE svg PUBLIC "-//W3C//DTD SVG 1.1//EN" "http://www.w3.org/Graphics/SVG/1.1/DTD/svg11.dtd">
<svg version="1.1" id="Layer_1" xmlns="http://www.w3.org/2000/svg" xmlns:xlink="http://www.w3.org/1999/xlink" x="0px" y="0px"
	 viewBox="0 0 48 48" enable-background="new 0 0 48 48" xml:space="preserve">
<g>
	<path fill="#F8B64C" d="M48,7.8v30.5c0,1.1-0.9,2-2,2H2c-1.1,0-2-0.9-2-2V2c0-1.1,0.9-2,2-2h14.3c0.5,0,0.9,0.2,1.3,0.5l2.9,3.9
		c0.4,0.3,0.8,0.5,1.3,0.5H46C47.1,4.8,48,6.7,48,7.8z"/>
	<path fill="#F2F2F2" d="M36.6,7.1h-29c-1.1,0-2,0.9-2,2v13.4h36.6v-9.7L36.6,7.1z"/>
	<path fill="#CDD6E0" d="M36.6,10.8c0,1.1,0.9,2,2,2h3.7l-5.7-5.7V10.8z"/>
	<g>
		<rect x="9" y="9.9" fill="#84DBFF" width="16.5" height="2.5"/>
		<rect x="9" y="15.5" fill="#84DBFF" width="30" height="2.5"/>
		<rect x="9" y="21.1" fill="#84DBFF" width="30" height="2.5"/>
	</g>
	<path fill="#FFD15C" d="M46,48H2c-1.1,0-2-0.9-2-2V22.5c0-1.1,0.9-2,2-2h44c1.1,0,2,0.9,2,2V46C48,47.1,47.1,48,46,48z"/>
</g>
</svg>
